<?xml version="1.0" encoding="utf-8"?>
<!-- Generator: Adobe Illustrator 16.0.0, SVG Export Plug-In . SVG Version: 6.00 Build 0)  -->
<!DOCTYPE svg PUBLIC "-//W3C//DTD SVG 1.1//EN" "http://www.w3.org/Graphics/SVG/1.1/DTD/svg11.dtd">
<svg version="1.1" id="Layer_1" xmlns="http://www.w3.org/2000/svg" xmlns:xlink="http://www.w3.org/1999/xlink" x="0px" y="0px"
	 width="3367.07px" height="713.496px" viewBox="0 0 3367.07 713.496" enable-background="new 0 0 3367.07 713.496"
	 xml:space="preserve">
<g>
	<g>
		<g>
			<polygon fill="#7446AF" points="213.569,29.915 673.504,520.98 673.504,520.98 			"/>
			<polygon fill="#7446AF" points="0.993,330.096 360.045,713.434 360.045,713.434 0.993,330.062 			"/>
			<path fill="#FFCCCC" d="M0,356.747c0,197.029,159.722,356.75,356.749,356.75c1.087,0,2.208-0.029,3.296-0.029L0.993,330.096
				C0.32,338.896,0,347.758,0,356.747z"/>
			<path fill="#FF5D5D" d="M38.812,194.756C17.822,235.902,4.576,281.654,0.993,330.062l359.053,383.371
				c48.824-0.449,95.281-10.688,137.547-28.861L38.812,194.756z"/>
			<path fill="#FCC735" d="M38.812,194.756l458.781,489.85c37.883-16.287,72.373-38.973,102.129-66.68L112.016,97.2
				C82.356,125.134,57.497,158.121,38.812,194.756z"/>
			<path fill="#34E0A1" d="M112.016,97.2l487.706,520.726c29.789-27.74,54.841-60.502,73.782-96.945L213.569,29.915
				C175.847,46.456,141.548,69.334,112.016,97.2z"/>
			<path fill="#2D9CDB" d="M350.189,0.063c-48.537,0.864-94.674,11.423-136.62,29.818l459.935,491.066
				c21.213-40.793,34.747-86.229,38.746-134.346L350.189,0.063z"/>
			<path fill="#7446AF" d="M356.749,0c-2.176,0-4.351,0.03-6.526,0.096L712.25,386.631c0.833-9.853,1.249-19.805,1.249-29.884
				C713.499,159.721,553.776,0,356.749,0z"/>
		</g>
		<path d="M1068.615,283.99v-45.785h-70.262v272.504h70.229V347.31c0-29.597,18.976-44.122,48.603-44.122h38.427v-64.982h-32.828
			C1097.091,238.205,1074.759,251.611,1068.615,283.99z M1221.426,130.414c-24.027,0-42.426,18.973-42.426,43
			c0,23.454,18.428,42.426,42.426,42.426c24.028,0,42.457-18.973,42.457-42.426C1263.853,149.386,1245.421,130.414,1221.426,130.414
			z M1186.391,510.709h70.038V238.205h-70.038V510.709z M1590.206,374.441c0,77.782-63.065,140.844-140.847,140.844
			c-31.386,0-59.861-10.271-82.675-27.645v103.057h-70.038V238.205h70.038v23.038c22.813-17.375,51.289-27.644,82.675-27.644
			C1527.141,233.599,1590.206,296.661,1590.206,374.441z M1519.687,374.441c0-42.267-34.267-76.5-76.501-76.5
			c-42.234,0-76.501,34.267-76.501,76.5c0,42.266,34.267,76.502,76.501,76.502C1485.42,450.943,1519.687,416.707,1519.687,374.441z
			 M2808.079,350.54l-40.859-11.229c-26.875-7.008-37.371-15.264-37.371-29.468c0-13.855,14.72-23.549,35.804-23.549
			c20.062,0,35.801,13.152,35.801,29.947v1.57h64.566v-1.57c0-49.464-40.344-82.675-100.367-82.675
			c-59.479,0-102.641,33.21-102.641,78.933c0,35.609,23.579,62.392,64.726,73.558l39.13,10.684
			c29.756,8.227,40.796,17.377,40.796,33.726c0,17.276-16,28.858-39.771,28.858c-24.796,0-41.469-15.676-41.469-39.001v-1.567
			h-68.533v1.567c0,55.896,45.017,94.962,109.458,94.962c62.102,0,107.185-38.139,107.185-90.676
			C2874.5,398.918,2862.981,365.193,2808.079,350.54z M1838.778,238.205h70.037v272.504h-70.037v-23.035
			c-22.813,17.373-51.289,27.645-82.678,27.645c-77.782,0-140.844-63.064-140.844-140.846c0-77.779,63.062-140.844,140.844-140.844
			c31.389,0,59.864,10.271,82.678,27.644V238.205z M1838.778,374.473L1838.778,374.473c0-42.265-34.27-76.532-76.502-76.532
			c-42.268,0-76.501,34.267-76.501,76.5c0,42.266,34.267,76.502,76.501,76.502C1804.509,450.973,1838.778,416.707,1838.778,374.473z
			 M2161.835,141.193h70.038v369.516h-70.038v-23.035c-22.812,17.373-51.288,27.645-82.678,27.645
			c-77.781,0-140.844-63.064-140.844-140.846c0-77.779,63.062-140.844,140.844-140.844c31.39,0,59.865,10.271,82.678,27.644V141.193
			z M2161.835,374.441c0-42.267-34.266-76.5-76.501-76.5c-42.268,0-76.501,34.267-76.501,76.5c0,42.266,34.267,76.502,76.501,76.502
			C2127.599,450.973,2161.835,416.707,2161.835,374.441z M2557.267,510.709h70.037V238.205h-70.037V510.709z M2592.269,130.414
			c-23.998,0-42.427,18.973-42.427,43c0,23.454,18.429,42.426,42.427,42.426c24.027,0,42.459-18.973,42.459-42.426
			C2634.728,149.386,2616.296,130.414,2592.269,130.414z M3177.37,374.441c0,77.782-63.065,140.844-140.844,140.844
			c-77.781,0-140.847-63.062-140.847-140.844c0-77.781,63.065-140.843,140.847-140.843
			C3114.305,233.599,3177.37,296.661,3177.37,374.441z M3113.027,374.441c0-42.267-34.269-76.5-76.501-76.5
			c-42.268,0-76.501,34.267-76.501,76.5c0,42.266,34.267,76.502,76.501,76.502C3078.759,450.973,3113.027,416.707,3113.027,374.441z
			 M1032.715,141.193H763.923v62.521h99.473v306.995h69.813V203.714h99.476v-62.521H1032.715z M2392.009,436.096l-62.326-197.891
			h-73.591l93.491,272.504h84.308l94.035-272.504h-73.591L2392.009,436.096z M3280.041,283.99v-45.785h-70.229v272.504h70.229
			V347.31c0-29.597,18.976-44.122,48.603-44.122h38.427v-64.982h-32.827C3308.52,238.205,3286.185,251.611,3280.041,283.99z"/>
	</g>
	<path d="M599.946,272.567l47.097-51.51H541.875c-52.569-36.157-116.111-56.954-185.126-56.954
		c-69.014,0-132.557,20.831-185.125,56.954H66.455l47.097,51.48c-29.564,26.298-47.097,64.629-47.097,107.343
		c0,79.956,64.631,144.622,144.62,144.622c38.33,0,72.309-14.242,98.608-38.332l47.099,50.391l46.008-50.391
		c26.301,24.09,60.248,38.332,98.61,38.332c79.956,0,144.62-64.633,144.62-144.622C647.043,337.2,628.422,298.835,599.946,272.567z
		 M212.129,477.402c-54.775,0-98.609-43.834-98.609-98.607c0-54.777,43.834-98.612,98.609-98.612
		c54.777,0,98.61,43.835,98.61,98.612C309.619,433.601,265.819,477.402,212.129,477.402z M356.749,376.617
		c0-64.63-47.097-120.496-108.464-143.5c33.948-14.238,70.102-21.916,108.464-21.916c38.363,0,75.605,7.678,108.465,21.916
		C403.846,257.21,356.749,311.987,356.749,376.617z M501.336,477.402c-54.775,0-98.61-43.834-98.61-98.607
		c0-54.777,43.835-98.612,98.61-98.612c54.777,0,98.61,43.835,98.61,98.612C599.946,433.601,556.113,477.402,501.336,477.402z
		 M501.336,328.433c-28.476,0-51.48,23.005-51.48,51.48s23.005,51.479,51.48,51.479c28.478,0,51.482-23.004,51.482-51.479
		S529.813,328.433,501.336,328.433z M263.611,379.913c0,28.476-23.005,51.479-51.482,51.479c-28.476,0-51.48-23.004-51.48-51.479
		s23.005-51.48,51.48-51.48C240.606,328.433,263.611,351.438,263.611,379.913z"/>
</g>
</svg>
